<svg id="Laag_2" data-name="Laag 2" xmlns="http://www.w3.org/2000/svg" viewBox="0 0 1118.33 738.9"><defs><style>.cls-1{fill:#fff;}</style></defs><title>FrontlogoFinal</title><path class="cls-1" d="M1104.42,293.71c-14.06,13.24-6.91,37.18-24.59,50-14.17-25.27-1-45.74,4.29-66.45,5.84-22.84,15.16-44.93,10.68-69.37-11-60.06-22.65-120-32.43-180.3C1059.11,7.5,1051.87-.61,1030.46,0,970.65,1.67,910.77,1.87,850.93,1.17,827.14.89,811.76,9.9,800.49,30.5c-12.12,22.17-26.39,43.17-39.72,64.68-8.68-18.42-9.85-33.48-8.46-48.3,3.63-38.76-12.89-49.7-49.66-41.26C679.75,10.88,655.81,10,631.9,10c-49.34.12-103.56-20.91-147.9,20-6,5.5-11.67,6.27-15.86-3C457.58,3.75,436,8.77,417.18,8.7c-79.34-.3-158.69-.11-238,.14C124.76,9,96.6,28.7,79.94,80c-11.16,34.34-21.09,69.13-30.15,104.09-11.15,43,3.51,63.75,48,65.55,41.69,1.69,83.5.48,125.26,0,43.12-.51,84.34-3.62,90.31-60.81,1.33-12.72,10.66-24.42,26.3-20,17.81,5.07,13.09,20.06,8,30.9-19.08,41,.84,47.94,36.12,44.25,13.78-1.44,28.11-2.24,41.68-.09,45.6,7.24,74.43-6.52,80.55-56.32,2.08-16.91,10.52-34.62,32.86-27.66,24.42,7.61,5.86,25,6.11,38.24.26,14.06-17.29,29.07.22,41.94,21.41,15.75,65.6-1.29,73.82-27.79,14.65-47.27,28.92-94.66,43.35-142,7.28,40.48,7.21,80,7.3,119.57.13,54.16,2.47,54.8,56.78,53.54,24.34-.56,34-14.88,44.34-31.62q44.67-72.57,89.35-145.12c-8.43,51.19-22.42,99.05-37.71,146.5-6.89,21.37-3.07,30.81,21.51,29.92,37.54-1.35,75.16-.93,112.73-.23,22.92.43,34.3-8.41,40.92-31.66,10.57-37.12,18.34-75.8,40.59-109.27,13.85,85.9-58.28,160.13-28.77,248.22l44.65-144c14.16,21,11.76,38,6.5,55.39-12.88,42.56-25.14,85.31-38.54,127.71-7.58,24-11.16,47.09,3.39,70.62,16.79-15.83,8.87-42.62,35.57-57-43,106.19-17.53,207.42,8.46,315.57,19.45-33.3,19.19-62.31,18.35-91.43.39-11.49-2.27-22.58-4.66-33.67,3.45,11.51,2.81,24.49,12.45,33.73C1145.16,535.81,1148.19,426.87,1104.42,293.71ZM208.52,203.65c-.79,12.4-7.79,21-21.05,21.48-16.65.58-33.33.14-50,.14q0,.76,0,1.53c-5.56,0-11.12,0-16.68,0C65,227,60.46,221,75,166.12c3.92-14.75,8.18-29.41,12.43-44.06,29.9-103.13,41.09-96.1,148.15-95.3,9.47.07,21.34-.31,21.9,13.22.49,11.6-4.26,22.2-16.93,25.56-6.59,1.75-13.77,1.42-20.7,1.73-83.68,3.74-82.68,4-104.25,85.92-6.72,25.53.43,33.37,24.61,32.49,15.27-.56,30.58-.26,45.87.09C197.93,186,209.51,188.16,208.52,203.65Zm-24-36c-12.76-8.18-42.92,16.11-46.24-18-3.6-37,22.66-66.88,56.61-63.18,21.43,2.33,58.79-22.63,62.9,20.47C261.94,150.29,238,167.65,184.52,167.6Zm230.06-23c10.54,22.63-7.63,50.24-19.26,73.66-4,8.09-14.14,8.26-22.48,6-12.39-3.43-7.08-12.6-5.55-20.25.81-4.07,3.12-8.09,3-12.07-.56-16.07,28.53-38.8-3.17-46.64-25.82-6.38-60.53-12.2-71.09,29-2.06,8-4.16,16.09-6.49,24.06-4.38,15-9,32.42-29.52,26.38-21.69-6.38-7.66-23.63-5-34.42,8-32.23,18.54-63.87,28.76-95.52,26.53-82.12,10.9-66.66,91.91-69,5.55,0,11.2-.71,16.63.08,19.31,2.79,47.19-10.47,54.84,15.49,6.57,22.28-4.69,46.75-21.09,64.59C415.2,117.83,403.86,121.6,414.58,144.63ZM631.8,102.06c-10.43,33.08-19.93,66.45-30.27,99.55-4.37,14-11.55,27.93-29.14,21.67-18.61-6.63-5.39-20.7-4-31.72.36-2.73,2-5.36,2-8.05.21-16.4,25-41.44-3.91-46.86-25.09-4.7-64-17.86-74.85,28.19-3.17,13.47-8.09,26.51-11.69,39.89-3.67,13.66-10.92,23.58-26.21,20.39-21.7-4.52-9.2-19.88-6.6-29.7,9.94-37.52,21.42-74.63,32.47-111.85,15.85-53.39,23.7-58,96.87-58.07C655.16,25.47,655.68,26.34,631.8,102.06ZM842.72,57.82c-27.61,46.67-56.4,92.64-84.47,139-10.82,17.89-24.35,32-46.93,26.88-26.35-6-16.18-29-16.82-45.06-1.67-41.68-1-83.45-.91-125.19,0-12.65.28-26.09,17.72-26.39,16.75,1.3,16.48,13.4,16.64,24.49.37,26.43-.32,52.88.52,79.29.33,10.32-5.67,25.38,7.61,29.59,14.07,4.46,16.52-11.61,21.82-20.38q29.15-48.18,57.2-97c7.83-13.58,20.19-24.23,33.61-15.9C864.56,37,848.1,48.74,842.72,57.82ZM1027,42.7c-1,12.37-10.22,15.43-20.67,15.81-16.67.61-33.4,1.82-50,1-24.33-1.18-38.57,10.74-37.92,33.6.7,24.8,22.71,11.2,35.22,14.67,3.87,1.07,8.4-.46,12.44.26,12.42,2.22,33.78-6.41,33.7,13-.08,19.11-21.37,11-33.92,13-5.44.87-11.1.46-16.66.57-23.33.49-53.54-4.14-51.6,30.85,1.67,30.19,30.33,13.57,46.94,17.58,12.34,3,31.71-4.68,32,16.43.29,23.07-19.84,18.34-34.25,19.29a200.85,200.85,0,0,1-21.65.15c-77.75,1.06-77.8,1-59.85-62.28,4.92-17.35,10-34.67,15.42-51.87,27-85.63,39.65-93.42,128.86-80.4C1016.51,26,1028.27,26.8,1027,42.7Z" transform="translate(-16.83 0.04)"/><path class="cls-1" d="M1025.76,602.61c-3.7-10.93-16.35-8.59-25.79-8.76-23.66-.42-47.33,0-71-.48-11.16-.21-23.85-.27-23.35-16.51.5-16,13.36-15,24.36-15.76,5.55-.37,11.13-.25,16.7-.19,95.82,1.12,73.88.74,62.63-79.88-.38-2.73-2-5.33-2.15-8-1.71-24.54-15.15-33.23-38.91-31.34-18,1.43-36.2.93-54.25,0-12.82-.67-32,5-33.14-15.18-1.26-22,18.73-15.37,31.09-16.26A371,371,0,0,1,962,410c29.15,1.86,37-9.52,28.75-37.51-6.26-21.15-9.59-43.53-11.29-65.59-2.28-29.63-15.91-40.3-45.72-39.67-75.13,1.59-150.37,2.19-225.46-.25-35.7-1.16-49.94,8-47.79,46.2,3.16,56.07.81,112.45.81,168.7-30.81-60.64-52.83-122.92-75.46-185-9.51-26.09-61.53-44.16-91.86-27.46-23.65,13,.49,32.71,1.83,49.51a8.84,8.84,0,0,0,6.69,8C548.23,452.29,595,577.24,639.06,703.14c18.18,51.93,59.14,31.14,91.08,31.08,35.59-.07,22.09-32.79,22.5-51.86,2.36-109.33-3-218.91,11.16-333.89,3.46,9.32,5.4,12.84,6.06,16.59,19.68,110.72,39.81,221.37,58.37,332.28,4.33,25.87,12.88,40,42.16,39,50-1.73,100.21-.15,150.31-.63,10.17-.1,27.91,4,27.34-10.64A433.44,433.44,0,0,0,1025.76,602.61Zm-289-275.45c-.64,118.09,1.56,236.24-7.57,354.15-1.25,16.17,3,35.58-22.47,36.55-19.52.74-39.41,3-48.46-21.49Q587.49,504.82,516.13,313.5c-4-10.81-8.13-23.13,8.24-26.4C542.64,283.46,561,283,569,305.85c17.94,51.11,36.56,102,54.06,153.25,19.63,57.51,38.34,115.33,57.46,173l5-.38c0-101.41-.21-202.83.19-304.24.07-18.31-5.93-41.55,25.63-41.63S736.89,308.5,736.79,327.16ZM1006.67,718c-22.25.21-44.51.06-66.76.06-101.51-1.78-82.31,18-102.63-90C818,525.84,802.18,422.94,782.8,320.71c-5-26.37.7-36.15,27.55-35.42,37.53,1,75.13-.42,112.66.55,32.43.84,47.52,26.77,45.87,77.89-1.05,32.8-27.06,19.25-43.7,22-9.49,1.54-19.44-.05-29.16.35-19.92.82-45.4-5.77-42.05,28.78,2.59,26.74,8.62,49.59,44.37,45.53,19.22-2.18,38.92.06,58.38-.42,17.19-.43,27,3.8,31.83,23.69,13.2,54.72,10.58,59.66-45.43,59.76-9.74,0-19.54-.69-29.2.19-13.94,1.26-36.1-5.17-33.18,18.82,2.35,19.29-2.66,48.27,31.42,49.19,9.73.26,19.47.25,29.21.25,82.11,0,69.88,8.24,84.19,86.06C1028.38,713.18,1019.7,717.9,1006.67,718Z" transform="translate(-16.83 0.04)"/><path class="cls-1" d="M559.12,689.53c-13.9-89-32.8-177.27-45.81-266.4-4.62-31.68-22-62.61-10.76-96.18l-6.69-8c-28.68-41.33-67.35-59.24-117.77-51.58-12.25,1.86-25.08-.52-37.54.47-23,1.82-47.76-6.84-68.57,9.92-19.06,15.35-18.07,39.5-24.64,67.06-12.58-77.19-12.58-77.19-82.62-77.19-25.06,0-50.12-.2-75.18,0C37.59,268.21,21,285,17.45,337.49,13.91,389.66,26.19,440,36,490.16c12.24,62.49,15,127.21,40.93,186.77,17.3,39.79,45.25,61.21,90.73,59.22,47.25-2.06,94.64-1,142-1.38a33.67,33.67,0,0,0,4.87-18.29c1.68,6.07,3.43,12.17,5.07,18.29,19.45.33,38.92.18,58.35,1.1,24.86,1.19,35.86-5.83,29-34-9.15-37.66-14.89-76.22-20.6-114.61-2.18-14.68-4.18-32.45,19.2-33.7,18.26-1,35.84-3.25,39.72,23.68,5.93,41.14,15.14,81.81,22.8,122.71,6.5,34.76,29.22,45.06,78.76,35.59C581.68,728.86,561.3,703.49,559.12,689.53Zm-340,28.55C107,718,94.85,707.15,75.28,592.86,63.79,525.78,51,458.92,38.93,391.93c-1.72-9.55-3.31-19.24-3.63-28.91-2-59.56,15.3-77.61,73.89-77.76,9.75,0,19.49,0,29.24,0h16.71c58.9,0,78.7,23.09,74,82.45-1.31,16.39-9.63,17.78-21.51,17.84-27.85.15-55.71.69-83.53,0-23.6-.59-32.38,7-26.93,32.41,11,51.58,21.46,103.5,27.8,155.81,3.81,31.46,18.59,39.84,46.75,38,20.8-1.34,41.8.63,62.63-.42,26.05-1.32,39.5,6,44.4,35.64C290.53,718.42,292.5,718.1,219.08,718.08Zm31.67-123.94c-99.23-.3-99.22.51-118.08-94.78-.54-2.71-1.75-5.32-2.08-8C119.73,402,96,409.68,197.78,409.16c63.13,0,63.46-.08,75.51,62.56,5.22,27.13,5.72,55.52,13.85,81.63C298.93,591.2,281.25,594.23,250.76,594.13Zm55.49,64.74c-1.07,9.81-.17,20,1.72,30.34C304.47,678.71,301.72,668.58,306.25,658.87Zm217,58.89c-23.46,2.41-35.15-6.46-38.34-31.7-5.2-41.18-13.26-82.09-22-122.7-11.51-53.32-54.27-24.74-82-26.1-32.4-1.59-17.88,26.32-15.34,43.63,4.62,31.54,10.51,62.88,15.4,94.38,2.56,16.51,14.69,36.95-14.93,42.26-27.95,5-32.17-15-35.74-34.71Q311.82,580.54,294,478.12q-9.59-55.3-17.94-110.81c-10.49-69.66,0-81.9,69.08-82H366c91.91,0,105.79,13.17,120.37,104,15.6,97.15,33.74,193.9,50.15,290.93C538.89,694.29,553.69,714.65,523.28,717.77Z" transform="translate(-16.83 0.04)"/><path class="cls-1" d="M547.48,110c-10.09-4.24-33.11,8.84-32-16.07,1.42-32.09,27.95-28.4,49.53-27,13,.82,33-8.14,34.85,16C601.37,102.81,586.24,110.41,547.48,110Z" transform="translate(-16.83 0.04)"/><path class="cls-1" d="M370.6,67.87c8.4,4.55,31.29-11.66,32.06,13.19.85,27.31-17.1,39.13-43.82,35.51-14.52-2-37.89,8.51-38.18-18C320.32,68.2,342.89,64.71,370.6,67.87Z" transform="translate(-16.83 0.04)"/><path class="cls-1" d="M385.36,386.15c-20.31.6-52.28-12.58-49.47,28.88,2.28,33.62,10.9,61.7,65.68,48.18,7.17-3.6,41.67,20.13,41.14-22.21C442.13,395.83,430.87,384.79,385.36,386.15Zm4,57c-12.72-.95-27.94,1-27.25-17.54.7-18.86,16.69-15.05,28.28-15.28,12.13-.24,27.37-1.6,26.7,17.17C416.4,446.63,400.3,441.42,389.36,443.15Z" transform="translate(-16.83 0.04)"/></svg>